<?xml version="1.0" encoding="UTF-8"?>
<svg id="Capa_1" data-name="Capa 1" xmlns="http://www.w3.org/2000/svg" viewBox="0 0 136.7 136.73">
  <defs>
    <style>
      .cls-1 {
        fill: #6f2387;
      }
    </style>
  </defs>
  <path class="cls-1" d="M92.08,132.27c-15.99,5.98-31.91,5.98-47.83-.24,3.87-1.03,7.36-2.46,9.54-5.98,.26-.43,.6-.88,.74-1.36,.48-1.51,1.29-3.3,.14-4.52-1.08-1.15-2.49,.36-3.56,.86-4.76,2.2-9.73,2.72-14.6,1.27-5.81-1.74-7.96-6.6-5.04-10.88,1.84-2.7,5-3.13,8.01-3.25,6.93-.26,13.6,.76,19.93,3.82,2.44,1.2,5.78-.86,6.19-3.56,.12-.79-.33-1.08-.91-1.39-8.15-4.45-16.78-7.62-26.1-6.81-9.08,.79-17.09,4.21-20.96,13.86-3.61-4.06-6.69-8.08-9.11-12.98,3.66,1.24,7.03,2.37,10.37,3.54,1.58,.55,2.94,.31,4.11-.86,1.34-1.31,3.13-1.89,5.38-3.18-3.08-.84-5.69-.57-8.17-.96-4.06-.62-8.05-1.48-12.07-2.29-1.27-.26-2.18-1.05-2.68-2.29C1.74,86.1-.32,76.77,.04,66.59c2.51,2.56,3.75,5.59,5.64,8.13,3.54,4.73,7.55,8.99,12.12,12.64,5.78,4.61,12.21,8.17,19.17,10.78,1.34,.5,2.82,1.17,3.73-.41,1.03-1.74-.02-4.88-1.65-5.5-8.99-3.44-16.97-8.44-23.54-15.51-5.4-5.81-9.7-12.36-12.86-19.89,12.5,0,24.19,2.29,35.09,7.82,2.75,1.41,5.74,2.7,7.89,5.11,1.27,1.41,2.34,1.2,3.75,.07,3.2-2.53,3.39-2.63,.07-5.14-5.14-3.85-10.68-7.05-16.83-9.03-2.41-.79-4.66-2.03-7.24-2.29-.93-.1-1.39-.69-1.63-1.72-1.51-6.6-1.41-13.03,1.24-19.34,.53-1.27,1.22-1.58,2.65-1.24,8.84,2.1,15.99,6.81,21.7,13.79,1.15,1.41,2.39,2.75,3.56,4.13,.93-.38,.41-1.29,.81-1.84,2.41-3.27,1.72-6.07-1.34-8.51-.91-.72-1-1.6-.72-2.82,2.22-9.78,7.84-17.23,15.42-23.47,.81-.67,1.43-.88,2.29-.19,4.8,3.9,8.89,8.41,11.9,13.84,1.7,3.06,2.94,6.31,3.7,9.75,.26,1.17,.17,1.96-.6,2.87-3.9,4.66-3.92,5.21-.88,10.76,2.51-3.2,5.02-6.36,7.98-9.08,5.21-4.78,11.31-7.86,18.19-9.44,1.17-.26,1.58,.53,1.94,1.34,2.72,6.29,2.8,12.74,1.36,19.34-.26,1.17-.91,1.63-1.89,1.84-6.36,1.51-12.33,4.06-17.95,7.29-3.11,1.77-5.83,4.21-8.72,6.31-.88,.65-.74,1.12,0,1.86,3.04,3.13,3.92,3.08,7.31,.36,3.49-2.82,7.51-4.8,11.62-6.6,6.14-2.68,12.62-4.09,19.14-5.14,3.68-.6,7.48-.5,11.59-.74-2.65,6.31-6.12,11.64-10.11,16.68-6.96,8.77-16.01,14.63-26.24,18.81-1.58,.65-2.92,4.71-1.77,5.93,.93,1,2.29,.55,3.44,.07,4.47-1.79,8.84-3.78,12.95-6.36,9.35-5.9,16.95-13.5,22.44-23.16,.17-.31,.38-.6,.6-.86,.26-.33,.55-.65,1.15-1.31,.19,4.23,.38,8.08-.48,11.81-1.31,5.59-2.18,11.35-4.76,16.61-.74,1.48-1.77,2.2-3.35,2.61-5.43,1.34-10.95,2.13-17.19,2.87,2.77,1.43,4.95,2.72,7.15,3.9,1.48,.81,3.06-.91,4.68-1.27,1.77-.41,3.47-1.2,5.66-1.98-2.34,4.49-4.95,8.29-8.22,11.9-1.53-8.05-7.82-10.06-14.22-11.76-3.3-.86-6.72-1.46-10.18-1.08-1.24,.14-2.46,.14-3.04,1.6-1.31,3.3-3.56,6-6.57,9.18,4.25-1.2,7.82-1.43,11.45-1.22,2.77,.17,5.09,1.22,7.05,3.08,3.68,3.51,1.89,9.8-3.35,10.97-7,1.55-13.91,.62-20.6-1.86-1.22-.45-2.65-1.7-3.59-1-1.41,1.05-2.39,2.77-3.3,4.35-.67,1.17,.67,1.39,1.39,1.77,5.31,2.87,11.04,4.37,16.99,5.26v.02Zm-28.16,3.51c.88-.41,1.15-1.29,1.48-2.08,3.59-8.05,8.56-15.13,15.06-21.08,7.94-7.24,12.67-15.8,11.74-26.89-.43-5.11-2.32-9.49-6.07-13.03-2.96-2.8-6.6-4.45-10.47-5.66,.79-1.77,1.65-3.23,2.84-4.4,1.05-1.03,1.55-2.32,1.98-3.63,1.03-3.18,.88-6.48,.5-9.68-.6-4.83-2.94-8.6-7.82-10.28-4.42-1.51-9.06-1.82-12.91,.96-4.71,3.39-7.07,13.74-5,19.12,.98,2.51,2.72,4.18,5.45,4.85,1.17,.29,2.2,.1,2.96-.62,.79-.74,.41-1.72,0-2.68-.84-1.94-1.46-3.97-2.29-5.9-.98-2.25,.14-4.02,1.43-5.52,1.43-1.7,3.47-2.51,5.71-1.91,4.73,1.29,7.34,7.65,4.71,11.78-1.27,2.01-2.34,4.06-3.51,6.07-1.41,2.44-4.57,.29-6.76,1.29-.45,.22-1.03,.17-1.55,.24-4.45,.65-8.37,2.46-11.81,5.33-5.31,4.45-5.78,10.52-5.02,16.66,.6,4.78,3.32,8.51,7.55,11.11,4.71,2.94,9.7,2.61,14.75,1.6,3.25-.65,4.52-3.06,3.92-6.31-.57-3.18-1.12-6.36-1.48-9.56-.24-2.08-.33-4.21-.65-6.57-3.51,3.39-4.37,5.57-4.13,9.92,.05,1.15,0,2.25-.38,3.37-.84,2.53-2.29,3.23-4.59,1.94-1.27-.69-2.25-1.79-2.58-3.18-1.08-4.54-.05-12.64,5.78-15.3,4.71-2.15,11.76-.67,14.39,4.35,3.75,7.17,2.03,13.74-1.86,20.12-3.2,5.26-7.62,9.63-10.76,14.96-3.9,6.6-4.52,13.67-.65,20.58l.02,.02Z"/>
  <path class="cls-1" d="M45.69,32.56c-4.54-3.11-9.23-5.59-14.36-7.05-2.25-.65-4.57-1.05-6.88-1.46-1.65-.31-2.34,1.17-2.99,2.18-4.4,6.84-5.9,14.32-4.64,22.35,.31,1.98,.41,3.39-2.44,2.94-3.37-.55-6.79-1-10.25-.81-1.39,.07-1.63-.6-1.29-1.82,1.27-4.59,3.11-8.96,5.4-13.05,2.46-4.42,5.33-8.63,8.75-12.43,4.66-5.19,9.92-9.58,15.85-13.31,6.69-4.21,13.98-6.81,21.56-8.63C60.85-.09,67.47-.24,74.06,.24c6.38,.45,12.62,2.01,18.57,4.3,9.11,3.49,17.09,8.72,24,15.68,7.98,8.05,13.7,17.35,17.02,28.2,.5,1.65,.41,2.29-1.43,2.22-3.37-.14-6.67,.38-9.99,.84-2.2,.31-2.8-.57-2.41-2.58,1.05-5.38,.45-10.64-1.15-15.82-.81-2.61-2.18-4.97-3.68-7.22-.76-1.12-1.72-1.91-3.68-1.65-6.96,.93-13.07,3.68-18.86,7.41-1.2,.79-1.43,.91-1.96-.69-3.44-10.11-9.94-18.07-18.09-24.71-3.85-3.15-4.13-3.08-8.05,0-4.73,3.7-8.7,8.15-12.17,13.1-2.82,4.04-5.02,8.32-6.45,13.27l-.02-.02Z"/>
</svg>