<?xml version="1.0" encoding="UTF-8"?>
<svg id="Capa_1" data-name="Capa 1" xmlns="http://www.w3.org/2000/svg" viewBox="0 0 57.2 57.2">
  <defs>
    <style>
      .cls-1 {
        fill: #6f2387;
      }
    </style>
  </defs>
  <path class="cls-1" d="m38.53,55.34c-6.69,2.5-13.35,2.5-20.01-.1,1.62-.43,3.08-1.03,3.99-2.5.11-.18.25-.37.31-.57.2-.63.54-1.38.06-1.89-.45-.48-1.04.15-1.49.36-1.99.92-4.07,1.14-6.11.53-2.43-.73-3.33-2.76-2.11-4.55.77-1.13,2.09-1.31,3.35-1.36,2.9-.11,5.69.32,8.34,1.6,1.02.5,2.42-.36,2.59-1.49.05-.33-.14-.45-.38-.58-3.41-1.86-7.02-3.19-10.92-2.85-3.8.33-7.15,1.76-8.77,5.8-1.51-1.7-2.8-3.38-3.81-5.43,1.53.52,2.94.99,4.34,1.48.66.23,1.23.13,1.72-.36.56-.55,1.31-.79,2.25-1.33-1.29-.35-2.38-.24-3.42-.4-1.7-.26-3.37-.62-5.05-.96-.53-.11-.91-.44-1.12-.96C.73,36.02-.13,32.12.02,27.86c1.05,1.07,1.57,2.34,2.36,3.4,1.48,1.98,3.16,3.76,5.07,5.29,2.42,1.93,5.11,3.42,8.02,4.51.56.21,1.18.49,1.56-.17.43-.73-.01-2.04-.69-2.3-3.76-1.44-7.1-3.53-9.85-6.49-2.26-2.43-4.06-5.17-5.38-8.32,5.23,0,10.12.96,14.68,3.27,1.15.59,2.4,1.13,3.3,2.14.53.59.98.5,1.57.03,1.34-1.06,1.42-1.1.03-2.15-2.15-1.61-4.47-2.95-7.04-3.78-1.01-.33-1.95-.85-3.03-.96-.39-.04-.58-.29-.68-.72-.63-2.76-.59-5.45.52-8.09.22-.53.51-.66,1.11-.52,3.7.88,6.69,2.85,9.08,5.77.48.59,1,1.15,1.49,1.73.39-.16.17-.54.34-.77,1.01-1.37.72-2.54-.56-3.56-.38-.3-.42-.67-.3-1.18.93-4.09,3.28-7.21,6.45-9.82.34-.28.6-.37.96-.08,2.01,1.63,3.72,3.52,4.98,5.79.71,1.28,1.23,2.64,1.55,4.08.11.49.07.82-.25,1.2-1.63,1.95-1.64,2.18-.37,4.5,1.05-1.34,2.1-2.66,3.34-3.8,2.18-2,4.73-3.29,7.61-3.95.49-.11.66.22.81.56,1.14,2.63,1.17,5.33.57,8.09-.11.49-.38.68-.79.77-2.66.63-5.16,1.7-7.51,3.05-1.3.74-2.44,1.76-3.65,2.64-.37.27-.31.47,0,.78,1.27,1.31,1.64,1.29,3.06.15,1.46-1.18,3.14-2.01,4.86-2.76,2.57-1.12,5.28-1.71,8.01-2.15,1.54-.25,3.13-.21,4.85-.31-1.11,2.64-2.56,4.87-4.23,6.98-2.91,3.67-6.7,6.12-10.98,7.87-.66.27-1.22,1.97-.74,2.48.39.42.96.23,1.44.03,1.87-.75,3.7-1.58,5.42-2.66,3.91-2.47,7.09-5.65,9.39-9.69.07-.13.16-.25.25-.36.11-.14.23-.27.48-.55.08,1.77.16,3.38-.2,4.94-.55,2.34-.91,4.75-1.99,6.95-.31.62-.74.92-1.4,1.09-2.27.56-4.58.89-7.19,1.2,1.16.6,2.07,1.14,2.99,1.63.62.34,1.28-.38,1.96-.53.74-.17,1.45-.5,2.37-.83-.98,1.88-2.07,3.47-3.44,4.98-.64-3.37-3.27-4.21-5.95-4.92-1.38-.36-2.81-.61-4.26-.45-.52.06-1.03.06-1.27.67-.55,1.38-1.49,2.51-2.75,3.84,1.78-.5,3.27-.6,4.79-.51,1.16.07,2.13.51,2.95,1.29,1.54,1.47.79,4.1-1.4,4.59-2.93.65-5.82.26-8.62-.78-.51-.19-1.11-.71-1.5-.42-.59.44-1,1.16-1.38,1.82-.28.49.28.58.58.74,2.22,1.2,4.62,1.83,7.11,2.2Zm-11.78,1.47c.37-.17.48-.54.62-.87,1.5-3.37,3.58-6.33,6.3-8.82,3.32-3.03,5.3-6.61,4.91-11.25-.18-2.14-.97-3.97-2.54-5.45-1.24-1.17-2.76-1.86-4.38-2.37.33-.74.69-1.35,1.19-1.84.44-.43.65-.97.83-1.52.43-1.33.37-2.71.21-4.05-.25-2.02-1.23-3.6-3.27-4.3-1.85-.63-3.79-.76-5.4.4-1.97,1.42-2.96,5.75-2.09,8,.41,1.05,1.14,1.75,2.28,2.03.49.12.92.04,1.24-.26.33-.31.17-.72,0-1.12-.35-.81-.61-1.66-.96-2.47-.41-.94.06-1.68.6-2.31.6-.71,1.45-1.05,2.39-.8,1.98.54,3.07,3.2,1.97,4.93-.53.84-.98,1.7-1.47,2.54-.59,1.02-1.91.12-2.83.54-.19.09-.43.07-.65.1-1.86.27-3.5,1.03-4.94,2.23-2.22,1.86-2.42,4.4-2.1,6.97.25,2,1.39,3.56,3.16,4.65,1.97,1.23,4.06,1.09,6.17.67,1.36-.27,1.89-1.28,1.64-2.64-.24-1.33-.47-2.66-.62-4-.1-.87-.14-1.76-.27-2.75-1.47,1.42-1.83,2.33-1.73,4.15.02.48,0,.94-.16,1.41-.35,1.06-.96,1.35-1.92.81-.53-.29-.94-.75-1.08-1.33-.45-1.9-.02-5.29,2.42-6.4,1.97-.9,4.92-.28,6.02,1.82,1.57,3,.85,5.75-.78,8.42-1.34,2.2-3.19,4.03-4.5,6.26-1.63,2.76-1.89,5.72-.27,8.61Z"/>
  <path class="cls-1" d="m19.12,13.62c-1.9-1.3-3.86-2.34-6.01-2.95-.94-.27-1.91-.44-2.88-.61-.69-.13-.98.49-1.25.91-1.84,2.86-2.47,5.99-1.94,9.35.13.83.17,1.42-1.02,1.23-1.41-.23-2.84-.42-4.29-.34-.58.03-.68-.25-.54-.76.53-1.92,1.3-3.75,2.26-5.46,1.03-1.85,2.23-3.61,3.66-5.2,1.95-2.17,4.15-4.01,6.63-5.57,2.8-1.76,5.85-2.85,9.02-3.61C25.46-.04,28.23-.1,30.99.1c2.67.19,5.28.84,7.77,1.8,3.81,1.46,7.15,3.65,10.04,6.56,3.34,3.37,5.73,7.26,7.12,11.8.21.69.17.96-.6.93-1.41-.06-2.79.16-4.18.35-.92.13-1.17-.24-1.01-1.08.44-2.25.19-4.45-.48-6.62-.34-1.09-.91-2.08-1.54-3.02-.32-.47-.72-.8-1.54-.69-2.91.39-5.47,1.54-7.89,3.1-.5.33-.6.38-.82-.29-1.44-4.23-4.16-7.56-7.57-10.34-1.61-1.32-1.73-1.29-3.37,0-1.98,1.55-3.64,3.41-5.09,5.48-1.18,1.69-2.1,3.48-2.7,5.55Z"/>
</svg>